<svg width="101" height="59" viewBox="0 0 101 59" fill="none" xmlns="http://www.w3.org/2000/svg">
<g opacity="0.4" clip-path="url(#clip0_2_247)">
<path d="M200.166 53.2874C200.047 53.2951 199.908 53.2693 199.805 53.3185C197.493 54.4631 196.203 54.3025 195.021 52.0081C193.875 49.7836 193.243 47.2898 192.43 44.8995C192.34 44.6328 192.489 44.2184 192.644 43.9387C194.899 39.8989 196.166 35.5146 197.046 31.0112C197.792 27.1993 198.404 23.3562 197.82 19.4536C197.663 18.3996 197.521 16.9805 196.326 16.8458C195.364 16.7371 194.231 17.3586 193.32 17.9024C192.701 18.2727 192.249 19.0211 191.87 19.6841C191.295 20.6889 190.748 21.7299 190.358 22.8176C187.827 29.864 187.698 37.0969 188.967 44.379C189.22 45.837 188.361 46.3212 187.543 46.9427C186.702 47.5824 185.739 47.7792 184.79 47.1111C183.218 46.0053 182.093 41.5744 182.779 39.7565C183.951 36.6567 185.13 33.5517 186.09 30.3845C186.818 27.9865 187.109 25.4771 186.459 22.9781C186.165 21.8464 185.592 20.8779 184.32 20.6371C183.035 20.3962 181.964 20.9219 181.321 21.9707C180.679 23.0196 180.096 24.1771 179.82 25.3658C178.586 30.7186 178.581 36.1413 179.288 41.5589C179.484 43.0609 178.824 44.032 177.905 44.9642C177.198 45.6816 176.408 45.5909 176.037 44.6794C175.606 43.6202 175.147 42.4523 175.172 41.3439C175.252 38.1276 175.557 34.9164 175.799 31.7052C175.913 30.2058 176.125 28.7142 176.207 27.2122C176.261 26.2255 175.632 25.8475 174.703 25.8967C173.446 25.964 172.716 26.6192 172.538 27.8674C172.112 30.8558 171.813 33.8676 171.235 36.825C170.825 38.9174 170.125 40.9658 169.367 42.9624C169.17 43.4804 168.249 44.032 167.689 44.0009C167.274 43.9776 166.634 43.0712 166.575 42.5067C166.407 40.9322 166.324 39.3136 166.508 37.7469C166.838 34.9242 167.393 32.1274 167.839 29.3176C168.058 27.9399 167.021 26.9973 165.746 27.5489C165.168 27.8 164.606 28.4759 164.392 29.0845C164.041 30.0867 163.827 31.1925 163.824 32.2542C163.816 34.6963 162.332 36.2397 160.699 37.9981C160.609 37.0736 160.596 36.3433 160.459 35.6337C160.095 33.7355 159.837 31.7959 159.244 29.9702C158.635 28.0953 157.352 27.4297 155.5 27.9995C154.14 28.4164 152.721 29.0431 151.663 29.965C148.37 32.8369 146.737 36.6204 146.262 40.9451C146.215 41.3595 145.841 41.735 145.619 42.1286C145.116 41.8334 144.332 41.6469 144.169 41.2196C143.857 40.4065 143.728 39.4353 143.831 38.5678C144.074 36.5634 144.463 34.5746 144.868 32.5961C145.021 31.8503 145.108 31.2028 144.327 30.8222C143.491 30.4156 142.809 30.7186 142.34 31.4618C142.115 31.8192 141.958 32.2335 141.844 32.6453C141.555 33.6811 141.406 34.7688 141.021 35.7684C140.159 38.0059 139.29 40.2511 138.201 42.3798C137.899 42.9676 136.787 43.5037 136.103 43.4415C135.066 43.3457 134.921 42.2348 134.872 41.2973C134.71 38.2881 135.675 35.5975 137.308 33.1425C138.993 30.6098 141.269 28.9861 144.425 28.867C144.724 28.8566 145.016 28.6909 145.312 28.5977C145.328 28.4889 145.343 28.3775 145.359 28.2688C144.889 28.0383 144.44 27.725 143.945 27.5877C141.648 26.9506 139.561 27.5463 137.783 29.0068C133.744 32.3216 131.67 36.6903 131.216 41.8748C131.172 42.3694 131.198 43.0479 130.901 43.3095C129.815 44.2676 128.684 45.2362 127.42 45.9172C126.024 46.6682 124.772 46.1399 124.176 44.6328C123.756 43.571 123.655 42.385 123.405 41.2533C123.211 40.3806 123.518 39.8756 124.329 39.4094C126.875 37.9463 129.275 36.2708 131.035 33.8443C132.219 32.2102 132.854 30.4208 132.488 28.3775C131.951 25.3839 129.138 23.9 126.568 25.503C125.206 26.3524 124.006 27.6835 123.124 29.0508C121.245 31.959 120.474 35.2919 120.112 38.7232C120.066 39.1583 119.978 39.7565 119.687 39.9714C118.698 40.6991 117.609 41.2895 116.696 41.8489C114.508 39.7176 112.381 37.7702 110.397 35.6804C108.568 33.7537 106.718 31.8011 105.195 29.6335C103.559 27.3002 103.786 24.721 105.34 22.3411C106.901 19.9456 109.84 18.9797 112.614 19.8576C114.941 20.5956 116.415 22.7891 116.379 25.4331C116.353 27.1915 115.344 28.4889 114.417 29.8433C114.198 30.1618 114.167 30.6124 114.048 31.0034C114.487 31.0811 114.921 31.1899 115.362 31.2236C115.561 31.2391 115.777 31.1278 115.971 31.0371C118.35 29.9132 119.95 28.1652 120.187 25.4486C120.417 22.8253 119.269 20.8339 117.067 19.4925C113.997 17.6201 110.673 17.3456 107.244 18.2209C100.78 19.8705 98.321 25.6403 101.843 31.3142C103.237 33.5568 105.118 35.5146 106.919 37.4698C108.973 39.7021 111.184 41.7893 113.378 43.9879C111.644 45.3009 110.031 46.3834 108.583 47.6575C107.043 49.017 105.492 50.4284 104.248 52.0495C102.579 54.2222 103.324 55.9754 106.031 56.3509C110.433 56.9621 114.394 55.7501 117.731 52.7979C119.194 51.5031 119.914 49.7499 119.436 47.774C119.088 46.3316 118.479 44.9539 117.947 43.4312C118.5 43.0712 119.165 42.6362 119.872 42.1752C120.231 43.5684 120.461 44.884 120.91 46.1192C121.777 48.4991 123.57 49.8949 125.758 49.5842C126.997 49.4081 128.217 48.6674 129.304 47.9605C130.245 47.3493 130.986 46.43 131.814 45.6479C133.388 47.4374 135.109 47.9915 136.936 47.0256C137.93 46.4999 138.838 45.6893 139.579 44.8296C140.422 43.8481 141.034 42.6698 141.615 41.779C142.133 42.662 142.476 44.0009 143.292 44.423C144.125 44.8555 145.421 44.3919 146.69 44.3117C147.746 45.9172 148.78 46.4533 150.677 45.7386C151.799 45.3164 153.017 44.6431 153.719 43.7186C154.927 42.1312 155.765 40.2614 156.756 38.5082C156.901 38.2519 157.014 37.98 157.285 37.4258C157.391 38.3814 157.43 38.9847 157.533 39.5778C157.763 40.8959 157.45 41.9525 156.467 42.9521C155.358 44.0812 154.315 45.3372 153.513 46.6967C152.499 48.4214 151.554 50.242 150.953 52.1402C150.357 54.0306 151.033 55.5067 152.282 56.2474C153.626 57.045 155.765 56.9828 156.965 55.7191C158.057 54.5667 159.009 53.1553 159.602 51.6844C160.797 48.7192 160.96 45.5184 160.689 42.3772C160.498 40.1527 162 39.2774 163.076 38.0602C163.483 40.2485 163.664 42.4238 164.322 44.4411C165.143 46.9505 167.803 47.5643 169.847 45.868C170.556 45.2802 171.09 44.4567 171.617 43.6798C171.975 43.1515 172.179 42.5196 172.44 41.968C172.979 43.5037 173.351 45.0756 174.06 46.474C175.162 48.6415 177.041 48.841 178.8 47.1499C179.249 46.7174 179.655 46.2384 180.109 45.7489C181.002 47.8569 181.636 50.0918 184.018 50.7262C186.524 51.3918 187.997 49.434 189.708 47.9527C189.881 48.468 189.963 48.8927 190.157 49.2553C191.166 51.138 192.027 53.1372 193.284 54.8386C194.538 56.5374 196.757 56.8637 198.535 56.0661C199.825 55.4834 200.45 54.4372 200.166 53.2874Z" fill="white"/>
<path d="M100.624 36.4541C100.908 37.6013 100.284 38.6501 98.9883 39.2302C97.2129 40.0278 94.9912 39.7015 93.7372 38.0027C92.4805 36.3013 91.6187 34.2995 90.6098 32.4194C90.4162 32.0569 90.3337 31.6348 90.1608 31.1168C88.45 32.5981 86.9766 34.5585 84.471 33.8903C82.0868 33.2559 81.4546 31.021 80.5618 28.913C80.1076 29.4025 79.7025 29.8816 79.2535 30.314C77.4963 32.0077 75.6152 31.8057 74.5134 29.6381C73.8037 28.2397 73.4322 26.6678 72.8929 25.1321C72.6348 25.6837 72.4284 26.3156 72.0697 26.8439C71.5433 27.6208 71.0066 28.4443 70.2996 29.0322C68.2559 30.7284 65.5956 30.1146 64.775 27.6053C64.1144 25.5879 63.9364 23.41 63.5287 21.2244C62.4527 22.4415 60.9483 23.3168 61.1418 25.5413C61.4128 28.6826 61.2476 31.8834 60.0555 34.8485C59.4646 36.3168 58.5098 37.7308 57.4183 38.8832C56.2185 40.1495 54.0793 40.2091 52.735 39.4115C51.4861 38.6708 50.81 37.1947 51.4061 35.3043C52.0047 33.4061 52.9491 31.5856 53.9658 29.8608C54.7683 28.5013 55.8108 27.2453 56.9203 26.1162C57.9035 25.1166 58.2157 24.06 57.986 22.7419C57.8828 22.1515 57.8467 21.5481 57.7383 20.5899C57.47 21.1441 57.3538 21.4186 57.2093 21.6724C56.2211 23.4256 55.3798 25.2953 54.1722 26.8827C53.4704 27.8047 52.2524 28.4806 51.13 28.9027C49.2334 29.6174 48.2012 29.0814 47.1433 27.4758C45.8737 27.5586 44.5784 28.0196 43.7449 27.5871C42.9295 27.165 42.5863 25.8262 42.0677 24.9431C41.4871 25.8339 40.8755 27.0148 40.0318 27.9937C39.2912 28.8535 38.3855 29.6666 37.3894 30.1897C35.5625 31.1557 33.8414 30.6015 32.2674 28.812C31.4417 29.5915 30.6985 30.5134 29.7567 31.1246C28.6704 31.8316 27.4498 32.5722 26.2113 32.7483C24.0257 33.0591 22.2323 31.6632 21.3627 29.2834C20.9112 28.0481 20.6841 26.7325 20.3254 25.3393C19.6184 25.8003 18.9526 26.2353 18.4004 26.5953C18.932 28.1154 19.541 29.4957 19.8893 30.9381C20.3667 32.914 19.6468 34.6672 18.1837 35.9621C14.8473 38.9143 10.8864 40.1262 6.48426 39.5151C3.77744 39.1396 3.03171 37.3864 4.70122 35.2137C5.94754 33.5925 7.49577 32.1812 9.03625 30.8216C10.4813 29.5475 12.0966 28.465 13.8306 27.1521C11.6373 24.9535 9.42589 22.8662 7.37191 20.6339C5.5708 18.6761 3.68713 16.7184 2.2963 14.4783C-1.22075 8.80698 1.23835 3.03724 7.7022 1.38504C11.1315 0.509743 14.455 0.784245 17.5257 2.65656C19.7268 3.998 20.875 5.98944 20.6454 8.61276C20.408 11.3293 18.8081 13.0799 16.429 14.2012C16.2381 14.2919 16.0188 14.4032 15.8201 14.3877C15.3788 14.354 14.9427 14.2453 14.5067 14.1676C14.6254 13.7765 14.6563 13.3285 14.8756 13.0074C15.8046 11.6556 16.8109 10.3556 16.8367 8.59722C16.8729 5.95578 15.3995 3.76234 13.0642 3.02429C10.2929 2.1464 7.35384 3.11493 5.79014 5.50777C4.23675 7.88766 4.00967 10.4669 5.64563 12.8002C7.16548 14.9678 9.01561 16.9204 10.8477 18.8471C12.8294 20.9343 14.9582 22.8843 17.1464 25.0156C18.0624 24.4562 19.1488 23.8658 20.137 23.1381C20.4286 22.9232 20.5164 22.3275 20.5628 21.8899C20.9241 18.4612 21.6982 15.1283 23.5741 12.2176C24.4566 10.8502 25.6565 9.51914 27.0189 8.66973C29.589 7.06674 32.4042 8.54802 32.9383 11.5442C33.3047 13.5875 32.6699 15.3769 31.4855 17.011C29.7231 19.4401 27.3234 21.1156 24.7791 22.5762C23.9689 23.0423 23.6644 23.5473 23.8554 24.42C24.1057 25.5491 24.2063 26.7377 24.6269 27.7995C25.223 29.3067 26.477 29.8324 27.8704 29.0839C29.1348 28.4029 30.265 27.4343 31.3514 26.4762C31.6481 26.2146 31.6223 25.5361 31.6662 25.0415C32.1203 19.857 34.1949 15.4883 38.2332 12.1735C40.0111 10.713 42.0986 10.1148 44.3952 10.7544C44.8906 10.8917 45.3396 11.2024 45.8092 11.4355C45.7937 11.5442 45.7783 11.6556 45.7628 11.7644C45.466 11.8576 45.1744 12.0207 44.8751 12.0337C41.7193 12.1554 39.4434 13.7765 37.7584 16.3092C36.1251 18.7642 35.16 21.4548 35.3226 24.464C35.3716 25.3989 35.5161 26.5124 36.5534 26.6082C37.2372 26.6704 38.3519 26.1343 38.6513 25.5465C39.7402 23.4178 40.6098 21.1726 41.4716 18.9351C41.8561 17.9381 42.0057 16.8504 42.2947 15.812C42.4083 15.4028 42.5657 14.9859 42.7902 14.6285C43.2598 13.8853 43.941 13.5797 44.7771 13.9889C45.5615 14.3696 45.4712 15.0196 45.3189 15.7628C44.9138 17.7413 44.5216 19.7301 44.2816 21.7345C44.1758 22.6021 44.3074 23.5732 44.6197 24.3863C44.7822 24.8136 45.5667 25.0001 46.0698 25.2953C46.2918 24.9017 46.6685 24.5262 46.7124 24.1118C47.1871 19.7845 48.8205 16.001 52.1131 13.1317C53.171 12.2098 54.5903 11.5831 55.9501 11.1662C57.8054 10.5964 59.0853 11.2594 59.6942 13.1369C60.2877 14.9626 60.5458 16.9022 60.9096 18.8004C61.0438 19.5074 61.0593 20.2377 61.1496 21.1648C62.7855 19.4064 64.2693 17.8656 64.2744 15.421C64.277 14.3592 64.4912 13.2534 64.8421 12.2512C65.0563 11.6427 65.6188 10.9668 66.1968 10.7156C67.4715 10.164 68.5088 11.1066 68.2895 12.4843C67.8431 15.2941 67.2883 18.0909 66.958 20.9136C66.7748 22.4803 66.8574 24.0989 67.0251 25.6734C67.0844 26.2379 67.7244 27.1469 68.1398 27.1676C68.6972 27.1987 69.6184 26.6471 69.8171 26.1292C70.5757 24.1325 71.275 22.0841 71.6853 19.9917C72.2633 17.0343 72.5626 14.0199 72.9883 11.0341C73.1664 9.78587 73.8966 9.13069 75.1533 9.06336C76.0822 9.01415 76.7118 9.39224 76.6576 10.3789C76.5777 11.8783 76.3635 13.3725 76.2499 14.8719C76.01 18.0831 75.7029 21.2943 75.6229 24.5106C75.5945 25.619 76.0538 26.7869 76.4873 27.8461C76.8589 28.7577 77.6485 28.8483 78.3555 28.131C79.2716 27.2013 79.9347 26.2276 79.7386 24.7256C79.0316 19.308 79.0368 13.8853 80.2702 8.53248C80.5437 7.34383 81.1294 6.18626 81.772 5.13745C82.4145 4.08864 83.4853 3.56035 84.7704 3.80378C86.0425 4.04462 86.6127 5.01315 86.9095 6.14482C87.5623 8.64384 87.2682 11.1558 86.5405 13.5512C85.5806 16.7184 84.4014 19.8259 83.2299 22.9232C82.5435 24.7385 83.6685 29.1694 85.24 30.2778C86.1896 30.9459 87.152 30.7491 87.9932 30.1095C88.8112 29.4879 89.6705 29.0037 89.4176 27.5457C88.1481 20.261 88.2771 13.0307 90.8084 5.98426C91.1981 4.89661 91.7451 3.85557 92.3205 2.85079C92.6999 2.18784 93.1514 1.43943 93.7707 1.06911C94.6816 0.525281 95.817 -0.0936465 96.7769 0.0125292C97.9716 0.147191 98.1135 1.56632 98.2709 2.62031C98.8541 6.52291 98.2425 10.366 97.4968 14.1779C96.6169 18.6787 95.3525 23.0656 93.0947 27.1055C92.9398 27.3851 92.7902 27.7969 92.8805 28.0662C93.6907 30.4565 94.3229 32.9503 95.4712 35.1748C96.6556 37.4692 97.9432 37.6298 100.255 36.4852C100.364 36.436 100.506 36.4645 100.624 36.4541ZM92.5115 24.4278C95.3551 17.0913 96.9988 9.86615 96.5498 1.97548C93.4146 4.06792 90.891 18.6969 92.5115 24.4278ZM57.181 15.3666C57.0545 15.0092 56.9926 14.0717 56.5694 13.8568C56.1385 13.6393 55.3282 14.0847 54.7244 14.3385C54.3864 14.4809 54.0922 14.7891 53.8419 15.0791C51.5067 17.7827 50.33 20.9706 50.1288 24.5029C50.0952 25.0726 50.5107 25.979 50.9571 26.1732C51.3803 26.3545 52.3092 25.9738 52.6834 25.5465C55.1554 22.7264 56.6313 19.4245 57.181 15.3666ZM14.9144 29.0088C14.1609 29.5734 13.4255 30.024 12.8062 30.6015C11.4308 31.8808 10.0607 33.173 8.8066 34.5662C8.44534 34.9676 8.17182 35.9854 8.40406 36.2651C8.75499 36.6872 9.6478 36.9824 10.1948 36.8503C11.4979 36.537 12.8759 36.1511 13.9699 35.4182C16.282 33.867 16.571 31.5571 14.9144 29.0088ZM23.9612 20.9395C26.5364 19.1915 28.7761 17.6299 29.9941 15.0247C30.7114 13.4865 30.5566 11.9793 29.6973 11.4847C28.7839 10.959 27.4963 11.5313 26.5106 12.9893C24.9598 15.2811 24.3689 17.8941 23.9612 20.9395ZM82.4119 19.3728C82.5693 19.4038 82.7293 19.4375 82.8867 19.4686C83.5705 16.8763 84.3394 14.2996 84.9071 11.6815C85.2142 10.2701 85.2658 8.78109 85.2477 7.33088C85.2426 6.81036 84.6955 6.29502 84.3962 5.77709C84.0221 6.19921 83.4518 6.56176 83.3021 7.05379C82.0635 11.0936 82.3319 15.2423 82.4119 19.3728ZM58.097 26.9682C55.8056 29.3895 54.3812 31.8471 53.731 34.7164C53.5581 35.4856 53.3646 36.5991 54.3787 36.7856C54.967 36.8943 55.7205 36.1718 56.3759 35.7808C56.5384 35.685 56.6288 35.4364 56.7165 35.2447C57.8699 32.7302 58.0763 30.0577 58.097 26.9682Z" fill="black"/>
<path d="M53.4618 38.9371C55.121 41.4854 54.832 43.7953 52.5174 45.3465C51.4233 46.082 50.0454 46.4653 48.7423 46.7786C48.1953 46.9107 47.2999 46.6155 46.9515 46.1933C46.7193 45.9137 46.9928 44.8959 47.3541 44.4945C48.6107 43.1013 49.9783 41.8091 51.3537 40.5298C51.973 39.9523 52.7058 39.5017 53.4618 38.9371Z" fill="white"/>
</g>
<defs>
<clipPath id="clip0_2_247">
<rect width="100" height="59" fill="white" transform="translate(0.691589 4.57764e-05)"/>
</clipPath>
</defs>
</svg>
