<?xml version="1.0" encoding="utf-8"?><svg viewBox="0 0 193 57" xmlns="http://www.w3.org/2000/svg" xmlns:xlink="http://www.w3.org/1999/xlink"><style>:root>svg{display:none}:root>svg:target{display:block}</style><svg fill="none" viewBox="0 0 193 57" id="Mobile_app_store_badge" xmlns="http://www.w3.org/2000/svg"><rect width="192.375" height="57" rx="5" fill="#000"/><path d="M97.094 30.995c-3.352 0-6.084 2.55-6.084 6.061 0 3.49 2.732 6.06 6.084 6.06 3.353 0 6.085-2.57 6.085-6.06-.002-3.511-2.734-6.06-6.085-6.06Zm0 9.736c-1.837 0-3.42-1.515-3.42-3.674 0-2.181 1.584-3.673 3.42-3.673 1.837 0 3.42 1.492 3.42 3.673 0 2.158-1.583 3.674-3.42 3.674ZM83.82 30.995c-3.351 0-6.083 2.55-6.083 6.061 0 3.49 2.732 6.06 6.083 6.06 3.353 0 6.085-2.57 6.085-6.06 0-3.511-2.732-6.06-6.085-6.06Zm0 9.736c-1.837 0-3.42-1.515-3.42-3.674 0-2.181 1.585-3.673 3.42-3.673 1.837 0 3.42 1.492 3.42 3.673.002 2.158-1.583 3.674-3.42 3.674Zm-15.786-7.875v2.571h6.153c-.184 1.447-.665 2.502-1.4 3.236-.895.895-2.296 1.883-4.753 1.883-3.787 0-6.749-3.054-6.749-6.842 0-3.787 2.962-6.841 6.75-6.841 2.043 0 3.535.804 4.636 1.837l1.814-1.814c-1.539-1.47-3.58-2.594-6.45-2.594-5.19 0-9.551 4.224-9.551 9.412 0 5.189 4.362 9.413 9.55 9.413 2.8 0 4.914-.92 6.565-2.641 1.699-1.699 2.228-4.087 2.228-6.015a8.31 8.31 0 0 0-.139-1.606h-8.654v.002Zm64.564 1.997c-.504-1.354-2.043-3.858-5.188-3.858-3.122 0-5.717 2.457-5.717 6.061 0 3.397 2.572 6.06 6.015 6.06 2.777 0 4.384-1.698 5.051-2.686l-2.066-1.378c-.688 1.01-1.63 1.676-2.985 1.676-1.354 0-2.319-.62-2.939-1.837l8.104-3.351-.275-.687Zm-8.265 2.02c-.068-2.342 1.814-3.535 3.169-3.535 1.056 0 1.951.529 2.25 1.285l-5.419 2.25Zm-6.588 5.877h2.662V24.936h-2.662V42.75Zm-4.363-10.4h-.091c-.597-.712-1.746-1.355-3.191-1.355-3.031 0-5.808 2.664-5.808 6.085 0 3.397 2.777 6.038 5.808 6.038 1.447 0 2.594-.643 3.191-1.377h.091v.873c0 2.318-1.24 3.558-3.236 3.558-1.63 0-2.641-1.17-3.054-2.158l-2.318.965c.665 1.606 2.432 3.581 5.372 3.581 3.122 0 5.763-1.837 5.763-6.314V31.364h-2.526v.987h-.001Zm-3.052 8.381c-1.837 0-3.375-1.539-3.375-3.65 0-2.137 1.538-3.697 3.375-3.697 1.812 0 3.236 1.56 3.236 3.696 0 2.112-1.424 3.651-3.236 3.651Zm34.743-15.795h-6.372V42.75h2.658v-6.748h3.712c2.947 0 5.845-2.134 5.845-5.532 0-3.399-2.897-5.534-5.843-5.534Zm.068 8.586h-3.782v-6.106h3.782c1.988 0 3.116 1.646 3.116 3.054 0 1.379-1.128 3.052-3.116 3.052Zm16.433-2.558c-1.925 0-3.919.848-4.744 2.727l2.36.985c.504-.985 1.445-1.306 2.43-1.306 1.375 0 2.773.825 2.796 2.29v.185c-.482-.275-1.514-.687-2.774-.687-2.543 0-5.134 1.398-5.134 4.01 0 2.384 2.086 3.919 4.423 3.919 1.787 0 2.773-.803 3.392-1.743h.091v1.375h2.568v-6.83c.001-3.16-2.361-4.925-5.408-4.925Zm-.322 9.763c-.869 0-2.085-.436-2.085-1.514 0-1.375 1.514-1.902 2.82-1.902 1.167 0 1.719.252 2.429.596-.207 1.651-1.628 2.82-3.164 2.82Zm15.081-9.374-3.048 7.724h-.091l-3.164-7.724h-2.864l4.744 10.794-2.705 6.005h2.773l7.312-16.799h-2.957ZM152.385 42.75h2.658V24.936h-2.658V42.75ZM67.57 14.596c0 1.194-.353 2.145-1.06 2.855-.805.843-1.853 1.265-3.142 1.265-1.234 0-2.284-.428-3.146-1.283-.864-.856-1.295-1.916-1.295-3.182s.431-2.327 1.295-3.182c.862-.856 1.912-1.284 3.146-1.284.613 0 1.199.12 1.755.358.557.24 1.003.557 1.336.955l-.75.752c-.567-.677-1.346-1.014-2.342-1.014-.9 0-1.679.316-2.336.949-.657.633-.984 1.455-.984 2.465 0 1.01.328 1.833.984 2.465.657.633 1.435.95 2.336.95.955 0 1.751-.319 2.388-.955.413-.415.653-.992.717-1.732h-3.105v-1.027h4.143c.042.223.06.439.06.645ZM74.14 11.025h-3.893v2.71h3.511v1.028h-3.511v2.71h3.893v1.052h-4.992v-8.55h4.992v1.05ZM78.773 18.525h-1.099v-7.5h-2.388v-1.05h5.875v1.05h-2.388v7.5ZM85.412 18.525v-8.55h1.098v8.55h-1.098ZM91.383 18.525h-1.099v-7.5h-2.388v-1.05h5.875v1.05h-2.388v7.5ZM104.893 17.42c-.841.864-1.886 1.296-3.135 1.296-1.25 0-2.294-.432-3.134-1.295-.84-.864-1.26-1.921-1.26-3.17 0-1.25.42-2.308 1.26-3.171.84-.864 1.884-1.297 3.134-1.297 1.242 0 2.285.434 3.129 1.302.844.868 1.265 1.922 1.265 3.165 0 1.25-.42 2.307-1.259 3.17Zm-5.458-.716c.633.641 1.406.96 2.323.96.916 0 1.691-.32 2.322-.96.633-.641.951-1.46.951-2.454 0-.995-.318-1.813-.951-2.454-.631-.641-1.406-.96-2.322-.96-.917 0-1.69.32-2.323.96-.631.642-.95 1.46-.95 2.454 0 .995.319 1.813.95 2.454ZM107.694 18.525v-8.55h1.337l4.155 6.65h.047l-.047-1.647V9.975h1.099v8.55h-1.147l-4.348-6.974h-.047l.047 1.647v5.327h-1.096Z" fill="#fff"/><path d="M67.57 14.596c0 1.194-.353 2.145-1.06 2.855-.805.843-1.853 1.265-3.142 1.265-1.234 0-2.284-.428-3.146-1.283-.864-.856-1.295-1.916-1.295-3.182s.431-2.327 1.295-3.182c.862-.856 1.912-1.284 3.146-1.284.613 0 1.199.12 1.755.358.557.24 1.003.557 1.336.955l-.75.752c-.567-.677-1.346-1.014-2.342-1.014-.9 0-1.679.316-2.336.949-.657.633-.984 1.455-.984 2.465 0 1.01.328 1.833.984 2.465.657.633 1.435.95 2.336.95.955 0 1.751-.319 2.388-.955.413-.415.653-.992.717-1.732h-3.105v-1.027h4.143c.042.223.06.439.06.645ZM74.14 11.025h-3.893v2.71h3.511v1.028h-3.511v2.71h3.893v1.052h-4.992v-8.55h4.992v1.05ZM78.773 18.525h-1.099v-7.5h-2.388v-1.05h5.875v1.05h-2.388v7.5ZM85.412 18.525v-8.55h1.098v8.55h-1.098ZM91.383 18.525h-1.099v-7.5h-2.388v-1.05h5.875v1.05h-2.388v7.5ZM104.893 17.42c-.841.864-1.886 1.296-3.135 1.296-1.25 0-2.294-.432-3.134-1.295-.84-.864-1.26-1.921-1.26-3.17 0-1.25.42-2.308 1.26-3.171.84-.864 1.884-1.297 3.134-1.297 1.242 0 2.285.434 3.129 1.302.844.868 1.265 1.922 1.265 3.165 0 1.25-.42 2.307-1.259 3.17Zm-5.458-.716c.633.641 1.406.96 2.323.96.916 0 1.691-.32 2.322-.96.633-.641.951-1.46.951-2.454 0-.995-.318-1.813-.951-2.454-.631-.641-1.406-.96-2.322-.96-.917 0-1.69.32-2.323.96-.631.642-.95 1.46-.95 2.454 0 .995.319 1.813.95 2.454ZM107.694 18.525v-8.55h1.337l4.155 6.65h.047l-.047-1.647V9.975h1.099v8.55h-1.147l-4.348-6.974h-.047l.047 1.647v5.327h-1.096Z" stroke="#fff" stroke-width=".2" stroke-miterlimit="10"/><g filter="url(#ba)"><path d="M14.871 10.742c-.414.439-.66 1.12-.66 2.002v31.515c0 .884.246 1.563.66 2.002l.106.103L32.63 28.71v-.417L14.977 10.638l-.106.104Z" fill="url(#bb)"/><path d="M38.515 34.596 32.63 28.71v-.416l5.885-5.886.133.076 6.972 3.961c1.991 1.132 1.991 2.983 0 4.116l-6.972 3.961-.134.074Z" fill="url(#bc)"/><g filter="url(#bd)"><path d="m38.649 34.52-6.02-6.019-17.758 17.76c.656.696 1.74.781 2.961.089L38.65 34.52Z" fill="url(#be)"/></g><path d="M38.649 22.482 17.832 10.655c-1.22-.694-2.305-.607-2.96.088l17.76 17.76 6.017-6.02Z" fill="url(#bf)"/></g><defs><linearGradient id="bb" x1="31.066" y1="12.41" x2="7.152" y2="36.325" gradientUnits="userSpaceOnUse"><stop stop-color="#00A0FF"/><stop offset=".007" stop-color="#00A1FF"/><stop offset=".26" stop-color="#00BEFF"/><stop offset=".512" stop-color="#00D2FF"/><stop offset=".76" stop-color="#00DFFF"/><stop offset="1" stop-color="#00E3FF"/></linearGradient><linearGradient id="bc" x1="48.213" y1="28.502" x2="13.734" y2="28.502" gradientUnits="userSpaceOnUse"><stop stop-color="#FFE000"/><stop offset=".409" stop-color="#FFBD00"/><stop offset=".775" stop-color="orange"/><stop offset="1" stop-color="#FF9C00"/></linearGradient><linearGradient id="be" x1="35.38" y1="31.77" x2="2.949" y2="64.201" gradientUnits="userSpaceOnUse"><stop stop-color="#FF3A44"/><stop offset="1" stop-color="#C31162"/></linearGradient><linearGradient id="bf" x1="10.399" y1=".252" x2="24.88" y2="14.733" gradientUnits="userSpaceOnUse"><stop stop-color="#32A071"/><stop offset=".069" stop-color="#2DA771"/><stop offset=".476" stop-color="#15CF74"/><stop offset=".801" stop-color="#06E775"/><stop offset="1" stop-color="#00F076"/></linearGradient><filter id="ba" x="14.211" y="10.176" width="32.903" height="36.652" filterUnits="userSpaceOnUse" color-interpolation-filters="sRGB"><feFlood flood-opacity="0" result="BackgroundImageFix"/><feBlend in="SourceGraphic" in2="BackgroundImageFix" result="shape"/><feColorMatrix in="SourceAlpha" values="0 0 0 0 0 0 0 0 0 0 0 0 0 0 0 0 0 0 127 0" result="hardAlpha"/><feOffset dy="-.15"/><feComposite in2="hardAlpha" operator="arithmetic" k2="-1" k3="1"/><feColorMatrix values="0 0 0 0 0 0 0 0 0 0 0 0 0 0 0 0 0 0 0.12 0"/><feBlend in2="shape" result="effect1_innerShadow_2_299"/><feColorMatrix in="SourceAlpha" values="0 0 0 0 0 0 0 0 0 0 0 0 0 0 0 0 0 0 127 0" result="hardAlpha"/><feOffset dy=".15"/><feComposite in2="hardAlpha" operator="arithmetic" k2="-1" k3="1"/><feColorMatrix values="0 0 0 0 1 0 0 0 0 1 0 0 0 0 1 0 0 0 0.25 0"/><feBlend in2="effect1_innerShadow_2_299" result="effect2_innerShadow_2_299"/></filter><filter id="bd" x="14.871" y="28.502" width="23.777" height="18.326" filterUnits="userSpaceOnUse" color-interpolation-filters="sRGB"><feFlood flood-opacity="0" result="BackgroundImageFix"/><feBlend in="SourceGraphic" in2="BackgroundImageFix" result="shape"/><feColorMatrix in="SourceAlpha" values="0 0 0 0 0 0 0 0 0 0 0 0 0 0 0 0 0 0 127 0" result="hardAlpha"/><feOffset dy="-.15"/><feComposite in2="hardAlpha" operator="arithmetic" k2="-1" k3="1"/><feColorMatrix values="0 0 0 0 0 0 0 0 0 0 0 0 0 0 0 0 0 0 0.08 0"/><feBlend in2="shape" result="effect1_innerShadow_2_299"/></filter></defs></svg><svg fill="none" viewBox="0 0 172 57" id="Mobile_app_store_badge-1" xmlns="http://www.w3.org/2000/svg"><rect x=".025" width="171" height="57" rx="7" fill="#0C0D10"/><path d="M116.2 27.361v3.265h-2.047v2.14h2.047v7.276c0 2.483 1.124 3.477 3.951 3.477.496 0 .969-.059 1.383-.13v-2.117c-.354.035-.579.059-.969.059-1.266 0-1.822-.592-1.822-1.94v-6.624h2.791v-2.141h-2.791v-3.265H116.2ZM128.736 43.697c3.762 0 6.068-2.52 6.068-6.695 0-4.152-2.318-6.684-6.068-6.684-3.761 0-6.08 2.532-6.08 6.684 0 4.175 2.307 6.695 6.08 6.695Zm0-2.26c-2.212 0-3.454-1.62-3.454-4.435 0-2.792 1.242-4.424 3.454-4.424 2.2 0 3.454 1.632 3.454 4.424 0 2.803-1.254 4.435-3.454 4.435ZM136.778 43.448h2.543v-7.606c0-1.81 1.36-3.028 3.288-3.028.45 0 1.207.083 1.42.154V30.46c-.272-.07-.757-.106-1.136-.106-1.679 0-3.111.922-3.477 2.188h-.19v-1.975h-2.448v12.881ZM150.343 32.483c1.881 0 3.111 1.313 3.17 3.336h-6.505c.142-2.011 1.455-3.336 3.335-3.336Zm3.159 7.488c-.474 1.005-1.526 1.56-3.064 1.56-2.035 0-3.348-1.43-3.43-3.69V37.7h9.096v-.887c0-4.045-2.165-6.494-5.749-6.494-3.631 0-5.938 2.614-5.938 6.73 0 4.117 2.259 6.649 5.95 6.649 2.945 0 5.003-1.42 5.583-3.726h-2.448ZM99.522 38.691c.196 3.163 2.832 5.186 6.755 5.186 4.193 0 6.817-2.12 6.817-5.505 0-2.66-1.496-4.131-5.125-4.977l-1.949-.478c-2.305-.54-3.237-1.263-3.237-2.526 0-1.593 1.447-2.636 3.617-2.636 2.06 0 3.482 1.018 3.739 2.649h2.673c-.159-2.98-2.783-5.076-6.375-5.076-3.862 0-6.437 2.096-6.437 5.247 0 2.6 1.459 4.144 4.659 4.892l2.28.552c2.342.551 3.372 1.36 3.372 2.71 0 1.568-1.618 2.709-3.825 2.709-2.366 0-4.009-1.067-4.242-2.747h-2.722ZM73.178 30.354c-1.75 0-3.265.875-4.046 2.342h-.189v-2.13h-2.448V47.73h2.543v-6.233h.2c.675 1.36 2.13 2.164 3.963 2.164 3.253 0 5.323-2.567 5.323-6.66 0-4.092-2.07-6.647-5.346-6.647Zm-.722 11.024c-2.129 0-3.466-1.68-3.466-4.365 0-2.697 1.337-4.376 3.478-4.376 2.153 0 3.442 1.644 3.442 4.365 0 2.732-1.29 4.376-3.454 4.376ZM87.423 30.354c-1.75 0-3.264.875-4.045 2.342h-.19v-2.13H80.74V47.73h2.543v-6.233h.201c.675 1.36 2.13 2.164 3.963 2.164 3.253 0 5.323-2.567 5.323-6.66 0-4.092-2.07-6.647-5.347-6.647Zm-.721 11.024c-2.13 0-3.466-1.68-3.466-4.365 0-2.697 1.337-4.376 3.477-4.376 2.153 0 3.443 1.644 3.443 4.365 0 2.732-1.29 4.376-3.454 4.376ZM61.932 43.448h2.918l-6.388-17.691h-2.955L49.12 43.448h2.82l1.63-4.695h6.743l1.619 4.695ZM56.844 28.97h.208l2.563 7.479h-5.346l2.575-7.479ZM50.828 12.413v8.534h3.082c2.543 0 4.015-1.567 4.015-4.293 0-2.685-1.484-4.24-4.015-4.24h-3.082Zm1.325 1.207h1.609c1.768 0 2.815 1.123 2.815 3.051 0 1.958-1.03 3.07-2.815 3.07h-1.609V13.62ZM62.436 21.072c1.88 0 3.034-1.26 3.034-3.348 0-2.076-1.16-3.341-3.034-3.341-1.881 0-3.04 1.265-3.04 3.341 0 2.088 1.153 3.348 3.04 3.348Zm0-1.13c-1.106 0-1.727-.81-1.727-2.218 0-1.396.62-2.212 1.727-2.212 1.1 0 1.727.816 1.727 2.212 0 1.402-.627 2.218-1.727 2.218ZM75.291 14.507h-1.272l-1.147 4.915h-.1l-1.325-4.915h-1.219l-1.324 4.915h-.095l-1.153-4.915h-1.29l1.775 6.44h1.307l1.325-4.743h.1l1.33 4.743h1.32l1.768-6.44ZM76.755 20.947h1.272V17.18c0-1.005.597-1.632 1.538-1.632.94 0 1.39.514 1.39 1.55v3.85h1.271v-4.17c0-1.532-.792-2.395-2.23-2.395-.97 0-1.608.431-1.922 1.147h-.094v-1.023h-1.225v6.44ZM84.229 20.947H85.5v-8.954H84.23v8.954ZM90.283 21.072c1.88 0 3.034-1.26 3.034-3.348 0-2.076-1.16-3.341-3.034-3.341-1.881 0-3.04 1.265-3.04 3.341 0 2.088 1.153 3.348 3.04 3.348Zm0-1.13c-1.106 0-1.727-.81-1.727-2.218 0-1.396.62-2.212 1.727-2.212 1.1 0 1.727.816 1.727 2.212 0 1.402-.627 2.218-1.727 2.218ZM97.105 19.983c-.692 0-1.194-.337-1.194-.916 0-.568.402-.87 1.289-.929l1.573-.1v.538c0 .798-.71 1.407-1.668 1.407Zm-.325 1.07c.846 0 1.55-.366 1.934-1.01h.1v.904h1.225v-4.4c0-1.36-.911-2.165-2.526-2.165-1.46 0-2.501.71-2.631 1.816h1.23c.142-.455.633-.715 1.342-.715.87 0 1.32.384 1.32 1.064v.556l-1.746.1c-1.531.095-2.395.764-2.395 1.923 0 1.177.905 1.928 2.147 1.928ZM104.354 21.054c.887 0 1.638-.42 2.023-1.124h.1v1.017h1.218v-8.954h-1.271v3.537h-.095c-.349-.71-1.094-1.13-1.975-1.13-1.627 0-2.673 1.29-2.673 3.324 0 2.04 1.035 3.33 2.673 3.33Zm.361-5.512c1.064 0 1.733.845 1.733 2.188 0 1.348-.663 2.182-1.733 2.182-1.077 0-1.721-.822-1.721-2.188 0-1.354.65-2.182 1.721-2.182ZM115.941 21.072c1.881 0 3.034-1.26 3.034-3.348 0-2.076-1.159-3.341-3.034-3.341-1.881 0-3.04 1.265-3.04 3.341 0 2.088 1.154 3.348 3.04 3.348Zm0-1.13c-1.106 0-1.727-.81-1.727-2.218 0-1.396.621-2.212 1.727-2.212 1.1 0 1.727.816 1.727 2.212 0 1.402-.627 2.218-1.727 2.218ZM120.658 20.947h1.272V17.18c0-1.005.597-1.632 1.538-1.632.94 0 1.39.514 1.39 1.55v3.85h1.271v-4.17c0-1.532-.792-2.395-2.229-2.395-.97 0-1.609.431-1.923 1.147h-.094v-1.023h-1.225v6.44ZM131.986 12.904v1.632h-1.024v1.07h1.024v3.638c0 1.242.561 1.739 1.975 1.739.248 0 .485-.03.692-.065v-1.059c-.178.018-.29.03-.485.03-.633 0-.911-.296-.911-.97v-3.312h1.396v-1.07h-1.396v-1.633h-1.271ZM136.36 20.947h1.271v-3.761c0-.976.58-1.632 1.621-1.632.899 0 1.378.52 1.378 1.55v3.843h1.271V16.79c0-1.532-.845-2.401-2.217-2.401-.97 0-1.65.431-1.964 1.153h-.1v-3.549h-1.26v8.954ZM146.489 15.465c.94 0 1.555.656 1.585 1.668h-3.253c.071-1.006.727-1.668 1.668-1.668Zm1.579 3.744c-.237.502-.763.78-1.532.78-1.017 0-1.674-.715-1.715-1.845v-.07h4.548v-.445c0-2.022-1.082-3.247-2.874-3.247-1.816 0-2.969 1.308-2.969 3.366s1.129 3.324 2.974 3.324c1.473 0 2.502-.71 2.792-1.863h-1.224ZM35.321 28.929a7.109 7.109 0 0 1 3.358-5.917 7.308 7.308 0 0 0-5.687-3.075c-2.393-.25-4.713 1.432-5.932 1.432-1.243 0-3.12-1.407-5.142-1.365a7.637 7.637 0 0 0-6.374 3.887c-2.756 4.772-.7 11.784 1.94 15.641 1.32 1.889 2.864 3.998 4.884 3.924 1.976-.083 2.715-1.26 5.1-1.26 2.364 0 3.057 1.26 5.118 1.212 2.12-.035 3.457-1.897 4.731-3.804a15.62 15.62 0 0 0 2.164-4.406c-2.492-1.055-4.157-3.563-4.16-6.27ZM31.429 17.4a6.944 6.944 0 0 0 1.588-4.973 7.064 7.064 0 0 0-4.571 2.365 6.666 6.666 0 0 0-1.63 4.79A5.91 5.91 0 0 0 31.43 17.4Z" fill="#fff"/></svg></svg>